<svg xmlns="http://www.w3.org/2000/svg" width="1183" height="600.734" viewBox="0 0 1183 600.734">
  <g id="Group_77" data-name="Group 77" transform="translate(6883 -13443.5)">
    <text id="Drop_me_a_Hi_" data-name="Drop me a &apos;Hi&apos; !" transform="translate(-6531 13512.5)" fill="#fff" font-size="70" font-family="CenturyGothic-Bold, Century Gothic" font-weight="700"><tspan x="0" y="0">Drop me a &apos;</tspan><tspan y="0" fill="#ffc000">Hi</tspan><tspan y="0">&apos; !</tspan></text>
    <g id="Group_76" data-name="Group 76">
      <g id="Group_58" data-name="Group 58" transform="translate(-6371.888 13669.001)">
        <g id="Ellipse_6" data-name="Ellipse 6" transform="translate(-0.112 -0.001)" stroke="#e4e4e4" stroke-width="1">
          <circle cx="97" cy="97" r="97" stroke="none"/>
          <circle cx="97" cy="97" r="96.5" fill="none"/>
        </g>
        <path id="Icon_simple-instagram" data-name="Icon simple-instagram" d="M32.28,0c-8.769,0-9.864.04-13.307.194a23.8,23.8,0,0,0-7.836,1.5A15.808,15.808,0,0,0,5.418,5.418a15.75,15.75,0,0,0-3.723,5.719,23.733,23.733,0,0,0-1.5,7.836C.032,22.416,0,23.511,0,32.28s.04,9.864.194,13.307a23.817,23.817,0,0,0,1.5,7.836,15.83,15.83,0,0,0,3.723,5.719,15.785,15.785,0,0,0,5.719,3.723,23.832,23.832,0,0,0,7.836,1.5c3.443.161,4.538.194,13.307.194s9.864-.04,13.307-.194a23.887,23.887,0,0,0,7.836-1.5,16.5,16.5,0,0,0,9.442-9.442,23.817,23.817,0,0,0,1.5-7.836c.161-3.443.194-4.538.194-13.307s-.04-9.864-.194-13.307a23.872,23.872,0,0,0-1.5-7.836,15.843,15.843,0,0,0-3.723-5.719,15.728,15.728,0,0,0-5.719-3.723,23.748,23.748,0,0,0-7.836-1.5C42.144.032,41.049,0,32.28,0Zm0,5.81c8.616,0,9.644.043,13.047.191a17.785,17.785,0,0,1,5.991,1.116,10.623,10.623,0,0,1,6.128,6.125,17.822,17.822,0,0,1,1.111,5.991c.153,3.406.188,4.428.188,13.046s-.04,9.644-.2,13.046a18.166,18.166,0,0,1-1.132,5.991,10.249,10.249,0,0,1-2.418,3.718,10.071,10.071,0,0,1-3.712,2.41,17.954,17.954,0,0,1-6.012,1.111c-3.427.153-4.436.188-13.071.188s-9.646-.04-13.071-.2a18.3,18.3,0,0,1-6.015-1.132A10,10,0,0,1,9.4,54.994a9.8,9.8,0,0,1-2.421-3.712,18.319,18.319,0,0,1-1.13-6.012c-.121-3.389-.164-4.436-.164-13.03s.043-9.646.164-13.076a18.3,18.3,0,0,1,1.13-6.009A9.569,9.569,0,0,1,9.4,9.439a9.548,9.548,0,0,1,3.71-2.416,17.866,17.866,0,0,1,5.975-1.132c3.43-.121,4.439-.161,13.071-.161l.121.081Zm0,9.894A16.576,16.576,0,1,0,48.856,32.28,16.575,16.575,0,0,0,32.28,15.7Zm0,27.336A10.76,10.76,0,1,1,43.04,32.28,10.757,10.757,0,0,1,32.28,43.04ZM53.386,15.051a3.874,3.874,0,1,1-3.874-3.871A3.876,3.876,0,0,1,53.386,15.051Z" transform="translate(63.259 63.945)" fill="#ffc000"/>
      </g>
      <g id="Group_60" data-name="Group 60" transform="translate(-6606 13669)">
        <g id="Path_12" data-name="Path 12" transform="translate(0 0)">
          <path d="M 97 193.5 C 90.45227813720703 193.5 83.90879821777344 192.8403778076172 77.55135345458984 191.5394439697266 C 71.35572814941406 190.2716522216797 65.26152801513672 188.3798980712891 59.4379997253418 185.916748046875 C 53.72007369995117 183.4982757568359 48.20512390136719 180.5048522949219 43.0462760925293 177.0196228027344 C 37.93632507324219 173.5673980712891 33.13114929199219 169.6027526855469 28.76420021057129 165.2357940673828 C 24.39724922180176 160.8688507080078 20.4326000213623 156.0636749267578 16.98037528991699 150.9537200927734 C 13.49514961242676 145.7948760986328 10.50172519683838 140.2799224853516 8.083250045776367 134.5619964599609 C 5.620100021362305 128.7384796142578 3.728349924087524 122.6442718505859 2.46055006980896 116.4486465454102 C 1.159625053405762 110.0912017822266 0.5 103.547721862793 0.5 97 C 0.5 90.45227813720703 1.159625053405762 83.90879821777344 2.46055006980896 77.55135345458984 C 3.728349924087524 71.35572814941406 5.620100021362305 65.26152801513672 8.083250045776367 59.4379997253418 C 10.50172519683838 53.72007369995117 13.49514961242676 48.20512390136719 16.98037528991699 43.0462760925293 C 20.4326000213623 37.93632507324219 24.39724922180176 33.13114929199219 28.76420021057129 28.76420021057129 C 33.13114929199219 24.39724922180176 37.93632507324219 20.4326000213623 43.0462760925293 16.98037528991699 C 48.20512390136719 13.49514961242676 53.72007369995117 10.50172519683838 59.4379997253418 8.083250045776367 C 65.26152801513672 5.620100021362305 71.35572814941406 3.728349924087524 77.55135345458984 2.46055006980896 C 83.90879821777344 1.159625053405762 90.45227813720703 0.5 97 0.5 C 103.547721862793 0.5 110.0912017822266 1.159625053405762 116.4486465454102 2.46055006980896 C 122.6442718505859 3.728349924087524 128.7384796142578 5.620100021362305 134.5619964599609 8.083250045776367 C 140.2799224853516 10.50172519683838 145.7948760986328 13.49514961242676 150.9537200927734 16.98037528991699 C 156.0636749267578 20.4326000213623 160.8688507080078 24.39724922180176 165.2357940673828 28.76420021057129 C 169.6027526855469 33.13114929199219 173.5673980712891 37.93632507324219 177.0196228027344 43.0462760925293 C 180.5048522949219 48.20512390136719 183.4982757568359 53.72007369995117 185.916748046875 59.4379997253418 C 188.3798980712891 65.26152801513672 190.2716522216797 71.35572814941406 191.5394439697266 77.55135345458984 C 192.8403778076172 83.90879821777344 193.5 90.45227813720703 193.5 97 C 193.5 103.547721862793 192.8403778076172 110.0912017822266 191.5394439697266 116.4486465454102 C 190.2716522216797 122.6442718505859 188.3798980712891 128.7384796142578 185.916748046875 134.5619964599609 C 183.4982757568359 140.2799224853516 180.5048522949219 145.7948760986328 177.0196228027344 150.9537200927734 C 173.5673980712891 156.0636749267578 169.6027526855469 160.8688507080078 165.2357940673828 165.2357940673828 C 160.8688507080078 169.6027526855469 156.0636749267578 173.5673980712891 150.9537200927734 177.0196228027344 C 145.7948760986328 180.5048522949219 140.2799224853516 183.4982757568359 134.5619964599609 185.916748046875 C 128.7384796142578 188.3798980712891 122.6442718505859 190.2716522216797 116.4486465454102 191.5394439697266 C 110.0912017822266 192.8403778076172 103.547721862793 193.5 97 193.5 Z" stroke="none"/>
          <path d="M 97 1 C 90.48587799072266 1 83.97612762451172 1.656204223632813 77.65160369873047 2.950393676757813 C 71.48829650878906 4.211578369140625 65.4259033203125 6.09344482421875 59.63278198242188 8.543746948242188 C 53.94459533691406 10.94964599609375 48.45828247070313 13.92752075195313 43.326171875 17.39469909667969 C 38.24259948730469 20.8291015625 33.46220397949219 24.77330017089844 29.11775207519531 29.11775207519531 C 24.77330017089844 33.46220397949219 20.8291015625 38.24259948730469 17.39469909667969 43.326171875 C 13.92752075195313 48.45828247070313 10.94964599609375 53.94459533691406 8.543746948242188 59.63278198242188 C 6.09344482421875 65.4259033203125 4.211578369140625 71.48829650878906 2.950393676757813 77.65160369873047 C 1.656204223632813 83.97612762451172 1 90.48587799072266 1 97 C 1 103.5141220092773 1.656204223632813 110.0238723754883 2.950393676757813 116.3483963012695 C 4.211578369140625 122.5117034912109 6.09344482421875 128.5740966796875 8.543746948242188 134.3672180175781 C 10.94964599609375 140.0554046630859 13.92752075195313 145.5417175292969 17.39469909667969 150.673828125 C 20.8291015625 155.7574005126953 24.77330017089844 160.5377960205078 29.11775207519531 164.8822479248047 C 33.46220397949219 169.2266998291016 38.24259948730469 173.1708984375 43.326171875 176.6053009033203 C 48.45828247070313 180.0724792480469 53.94459533691406 183.0503540039063 59.63278198242188 185.4562530517578 C 65.4259033203125 187.9065551757813 71.48829650878906 189.7884216308594 77.65160369873047 191.0496063232422 C 83.97612762451172 192.3437957763672 90.48587799072266 193 97 193 C 103.5141220092773 193 110.0238723754883 192.3437957763672 116.3483963012695 191.0496063232422 C 122.5117034912109 189.7884216308594 128.5740966796875 187.9065551757813 134.3672180175781 185.4562530517578 C 140.0554046630859 183.0503540039063 145.5417175292969 180.0724792480469 150.673828125 176.6053009033203 C 155.7574005126953 173.1708984375 160.5377960205078 169.2266998291016 164.8822479248047 164.8822479248047 C 169.2266998291016 160.5377960205078 173.1708984375 155.7574005126953 176.6053009033203 150.673828125 C 180.0724792480469 145.5417175292969 183.0503540039063 140.0554046630859 185.4562530517578 134.3672180175781 C 187.9065551757813 128.5740966796875 189.7884216308594 122.5117034912109 191.0496063232422 116.3483963012695 C 192.3437957763672 110.0238723754883 193 103.5141220092773 193 97 C 193 90.48587799072266 192.3437957763672 83.97612762451172 191.0496063232422 77.65160369873047 C 189.7884216308594 71.48829650878906 187.9065551757813 65.4259033203125 185.4562530517578 59.63278198242188 C 183.0503540039063 53.94459533691406 180.0724792480469 48.45828247070313 176.6053009033203 43.326171875 C 173.1708984375 38.24259948730469 169.2266998291016 33.46220397949219 164.8822479248047 29.11775207519531 C 160.5377960205078 24.77330017089844 155.7574005126953 20.8291015625 150.673828125 17.39469909667969 C 145.5417175292969 13.92752075195313 140.0554046630859 10.94964599609375 134.3672180175781 8.543746948242188 C 128.5740966796875 6.09344482421875 122.5117034912109 4.211578369140625 116.3483963012695 2.950393676757813 C 110.0238723754883 1.656204223632813 103.5141220092773 1 97 1 M 97 0 C 150.5716247558594 0 194 43.42837524414063 194 97 C 194 150.5716247558594 150.5716247558594 194 97 194 C 43.42837524414063 194 0 150.5716247558594 0 97 C 0 43.42837524414063 43.42837524414063 0 97 0 Z" stroke="none" fill="#e4e4e4"/>
        </g>
        <path id="Icon_awesome-facebook-f" data-name="Icon awesome-facebook-f" d="M37.259,41.563l1.978-13.372H26.868V19.513c0-3.658,1.728-7.224,7.268-7.224h5.623V.9A66.18,66.18,0,0,0,29.777,0C19.591,0,12.932,6.4,12.932,18V28.191H1.609V41.563H12.932V73.89H26.868V41.563Z" transform="translate(77.622 58.578)" fill="#ffc000" stroke="#ffc000" stroke-width="1"/>
      </g>
      <g id="Group_63" data-name="Group 63" transform="translate(53)">
        <g id="Group_62" data-name="Group 62" transform="translate(-6191 13669)">
          <g id="Path_12-2" data-name="Path 12" transform="translate(0 0)">
            <path d="M 97 193.5 C 90.45227813720703 193.5 83.90879821777344 192.8403778076172 77.55135345458984 191.5394439697266 C 71.35572814941406 190.2716522216797 65.26152801513672 188.3798980712891 59.4379997253418 185.916748046875 C 53.72007369995117 183.4982757568359 48.20512390136719 180.5048522949219 43.0462760925293 177.0196228027344 C 37.93632507324219 173.5673980712891 33.13114929199219 169.6027526855469 28.76420021057129 165.2357940673828 C 24.39724922180176 160.8688507080078 20.4326000213623 156.0636749267578 16.98037528991699 150.9537200927734 C 13.49514961242676 145.7948760986328 10.50172519683838 140.2799224853516 8.083250045776367 134.5619964599609 C 5.620100021362305 128.7384796142578 3.728349924087524 122.6442718505859 2.46055006980896 116.4486465454102 C 1.159625053405762 110.0912017822266 0.5 103.547721862793 0.5 97 C 0.5 90.45227813720703 1.159625053405762 83.90879821777344 2.46055006980896 77.55135345458984 C 3.728349924087524 71.35572814941406 5.620100021362305 65.26152801513672 8.083250045776367 59.4379997253418 C 10.50172519683838 53.72007369995117 13.49514961242676 48.20512390136719 16.98037528991699 43.0462760925293 C 20.4326000213623 37.93632507324219 24.39724922180176 33.13114929199219 28.76420021057129 28.76420021057129 C 33.13114929199219 24.39724922180176 37.93632507324219 20.4326000213623 43.0462760925293 16.98037528991699 C 48.20512390136719 13.49514961242676 53.72007369995117 10.50172519683838 59.4379997253418 8.083250045776367 C 65.26152801513672 5.620100021362305 71.35572814941406 3.728349924087524 77.55135345458984 2.46055006980896 C 83.90879821777344 1.159625053405762 90.45227813720703 0.5 97 0.5 C 103.547721862793 0.5 110.0912017822266 1.159625053405762 116.4486465454102 2.46055006980896 C 122.6442718505859 3.728349924087524 128.7384796142578 5.620100021362305 134.5619964599609 8.083250045776367 C 140.2799224853516 10.50172519683838 145.7948760986328 13.49514961242676 150.9537200927734 16.98037528991699 C 156.0636749267578 20.4326000213623 160.8688507080078 24.39724922180176 165.2357940673828 28.76420021057129 C 169.6027526855469 33.13114929199219 173.5673980712891 37.93632507324219 177.0196228027344 43.0462760925293 C 180.5048522949219 48.20512390136719 183.4982757568359 53.72007369995117 185.916748046875 59.4379997253418 C 188.3798980712891 65.26152801513672 190.2716522216797 71.35572814941406 191.5394439697266 77.55135345458984 C 192.8403778076172 83.90879821777344 193.5 90.45227813720703 193.5 97 C 193.5 103.547721862793 192.8403778076172 110.0912017822266 191.5394439697266 116.4486465454102 C 190.2716522216797 122.6442718505859 188.3798980712891 128.7384796142578 185.916748046875 134.5619964599609 C 183.4982757568359 140.2799224853516 180.5048522949219 145.7948760986328 177.0196228027344 150.9537200927734 C 173.5673980712891 156.0636749267578 169.6027526855469 160.8688507080078 165.2357940673828 165.2357940673828 C 160.8688507080078 169.6027526855469 156.0636749267578 173.5673980712891 150.9537200927734 177.0196228027344 C 145.7948760986328 180.5048522949219 140.2799224853516 183.4982757568359 134.5619964599609 185.916748046875 C 128.7384796142578 188.3798980712891 122.6442718505859 190.2716522216797 116.4486465454102 191.5394439697266 C 110.0912017822266 192.8403778076172 103.547721862793 193.5 97 193.5 Z" stroke="none"/>
            <path d="M 97 1 C 90.48587799072266 1 83.97612762451172 1.656204223632813 77.65160369873047 2.950393676757813 C 71.48829650878906 4.211578369140625 65.4259033203125 6.09344482421875 59.63278198242188 8.543746948242188 C 53.94459533691406 10.94964599609375 48.45828247070313 13.92752075195313 43.326171875 17.39469909667969 C 38.24259948730469 20.8291015625 33.46220397949219 24.77330017089844 29.11775207519531 29.11775207519531 C 24.77330017089844 33.46220397949219 20.8291015625 38.24259948730469 17.39469909667969 43.326171875 C 13.92752075195313 48.45828247070313 10.94964599609375 53.94459533691406 8.543746948242188 59.63278198242188 C 6.09344482421875 65.4259033203125 4.211578369140625 71.48829650878906 2.950393676757813 77.65160369873047 C 1.656204223632813 83.97612762451172 1 90.48587799072266 1 97 C 1 103.5141220092773 1.656204223632813 110.0238723754883 2.950393676757813 116.3483963012695 C 4.211578369140625 122.5117034912109 6.09344482421875 128.5740966796875 8.543746948242188 134.3672180175781 C 10.94964599609375 140.0554046630859 13.92752075195313 145.5417175292969 17.39469909667969 150.673828125 C 20.8291015625 155.7574005126953 24.77330017089844 160.5377960205078 29.11775207519531 164.8822479248047 C 33.46220397949219 169.2266998291016 38.24259948730469 173.1708984375 43.326171875 176.6053009033203 C 48.45828247070313 180.0724792480469 53.94459533691406 183.0503540039063 59.63278198242188 185.4562530517578 C 65.4259033203125 187.9065551757813 71.48829650878906 189.7884216308594 77.65160369873047 191.0496063232422 C 83.97612762451172 192.3437957763672 90.48587799072266 193 97 193 C 103.5141220092773 193 110.0238723754883 192.3437957763672 116.3483963012695 191.0496063232422 C 122.5117034912109 189.7884216308594 128.5740966796875 187.9065551757813 134.3672180175781 185.4562530517578 C 140.0554046630859 183.0503540039063 145.5417175292969 180.0724792480469 150.673828125 176.6053009033203 C 155.7574005126953 173.1708984375 160.5377960205078 169.2266998291016 164.8822479248047 164.8822479248047 C 169.2266998291016 160.5377960205078 173.1708984375 155.7574005126953 176.6053009033203 150.673828125 C 180.0724792480469 145.5417175292969 183.0503540039063 140.0554046630859 185.4562530517578 134.3672180175781 C 187.9065551757813 128.5740966796875 189.7884216308594 122.5117034912109 191.0496063232422 116.3483963012695 C 192.3437957763672 110.0238723754883 193 103.5141220092773 193 97 C 193 90.48587799072266 192.3437957763672 83.97612762451172 191.0496063232422 77.65160369873047 C 189.7884216308594 71.48829650878906 187.9065551757813 65.4259033203125 185.4562530517578 59.63278198242188 C 183.0503540039063 53.94459533691406 180.0724792480469 48.45828247070313 176.6053009033203 43.326171875 C 173.1708984375 38.24259948730469 169.2266998291016 33.46220397949219 164.8822479248047 29.11775207519531 C 160.5377960205078 24.77330017089844 155.7574005126953 20.8291015625 150.673828125 17.39469909667969 C 145.5417175292969 13.92752075195313 140.0554046630859 10.94964599609375 134.3672180175781 8.543746948242188 C 128.5740966796875 6.09344482421875 122.5117034912109 4.211578369140625 116.3483963012695 2.950393676757813 C 110.0238723754883 1.656204223632813 103.5141220092773 1 97 1 M 97 0 C 150.5716247558594 0 194 43.42837524414063 194 97 C 194 150.5716247558594 150.5716247558594 194 97 194 C 43.42837524414063 194 0 150.5716247558594 0 97 C 0 43.42837524414063 43.42837524414063 0 97 0 Z" stroke="none" fill="#e4e4e4"/>
          </g>
        </g>
        <path id="Icon_awesome-twitter" data-name="Icon awesome-twitter" d="M70.832,19.36c.05.7.05,1.4.05,2.1,0,21.39-16.28,46.036-46.036,46.036A45.723,45.723,0,0,1,0,60.237a33.472,33.472,0,0,0,3.907.2,32.4,32.4,0,0,0,20.087-6.913A16.209,16.209,0,0,1,8.866,42.3a20.4,20.4,0,0,0,3.056.25A17.113,17.113,0,0,0,16.18,42,16.182,16.182,0,0,1,3.206,26.123v-.2a16.3,16.3,0,0,0,7.314,2.054A16.2,16.2,0,0,1,5.51,6.336,45.991,45.991,0,0,0,38.872,23.268a18.265,18.265,0,0,1-.4-3.707,16.2,16.2,0,0,1,28-11.071A31.856,31.856,0,0,0,76.743,4.583,16.136,16.136,0,0,1,69.629,13.5a32.436,32.436,0,0,0,9.317-2.5,34.781,34.781,0,0,1-8.115,8.365Z" transform="translate(-6133 13731)" fill="#ffc000"/>
      </g>
    </g>
    <g id="Group_69" data-name="Group 69" transform="translate(-17)">
      <g id="Group_67" data-name="Group 67" transform="translate(40 -43.66)">
        <path id="Icon_awesome-github" data-name="Icon awesome-github" d="M13.459,32.154c0,.162-.187.292-.422.292-.268.024-.454-.105-.454-.292,0-.162.187-.292.422-.292C13.248,31.838,13.459,31.968,13.459,32.154Zm-2.523-.365c-.057.162.105.349.349.4a.381.381,0,0,0,.5-.162c.049-.162-.105-.349-.349-.422A.416.416,0,0,0,10.936,31.789Zm3.586-.138c-.235.057-.4.211-.373.4.024.162.235.268.479.211s.4-.211.373-.373S14.757,31.627,14.522,31.651ZM19.861.563A19.454,19.454,0,0,0,0,20.358,20.34,20.34,0,0,0,13.751,39.764c1.038.187,1.4-.454,1.4-.982,0-.5-.024-3.278-.024-4.981,0,0-5.679,1.217-6.872-2.418,0,0-.925-2.361-2.255-2.969,0,0-1.858-1.274.13-1.249a4.282,4.282,0,0,1,3.132,2.093c1.777,3.132,4.754,2.231,5.914,1.7a4.509,4.509,0,0,1,1.3-2.734c-4.535-.5-9.111-1.16-9.111-8.965a6.149,6.149,0,0,1,1.915-4.779,7.665,7.665,0,0,1,.211-5.509c1.7-.527,5.6,2.19,5.6,2.19a19.166,19.166,0,0,1,10.19,0s3.9-2.726,5.6-2.19a7.662,7.662,0,0,1,.211,5.509,6.306,6.306,0,0,1,2.093,4.779c0,7.829-4.779,8.454-9.314,8.965a4.8,4.8,0,0,1,1.379,3.764c0,2.734-.024,6.117-.024,6.782,0,.527.373,1.168,1.4.982A20.153,20.153,0,0,0,40.24,20.358C40.24,9.105,31.113.563,19.861.563ZM7.886,28.544c-.105.081-.081.268.057.422.13.13.316.187.422.081.105-.081.081-.268-.057-.422C8.178,28.5,7.991,28.439,7.886,28.544Zm-.876-.657c-.057.105.024.235.187.316a.241.241,0,0,0,.349-.057c.057-.105-.024-.235-.187-.316C7.2,27.781,7.066,27.806,7.01,27.887Zm2.629,2.888c-.13.105-.081.349.105.5.187.187.422.211.527.081.105-.105.057-.349-.105-.5C9.987,30.67,9.744,30.645,9.638,30.775Zm-.925-1.193c-.13.081-.13.292,0,.479s.349.268.454.187a.37.37,0,0,0,0-.5C9.054,29.558,8.843,29.477,8.713,29.583Z" transform="translate(-6906 14048.098)" fill="#707070"/>
        <text id="github.com_xyao99" data-name="github.com/xyao99" transform="translate(-6843 14079)" fill="#707070" font-size="27" font-family="CenturyGothic, Century Gothic"><tspan x="0" y="0">github.com/xyao99</tspan></text>
      </g>
      <g id="Group_68" data-name="Group 68" transform="translate(46 -44)">
        <path id="Icon_zocial-email" data-name="Icon zocial-email" d="M.072,30.591V6.645q0-.042.125-.79L14.289,17.911.238,31.422a3.523,3.523,0,0,1-.166-.831Zm1.871-26.4a1.792,1.792,0,0,1,.707-.125H40.6a2.354,2.354,0,0,1,.748.125L27.218,16.29l-1.871,1.5-3.7,3.035-3.7-3.035-1.871-1.5Zm.042,28.851L16.16,19.449,21.648,23.9l5.487-4.448L41.311,33.043a2,2,0,0,1-.707.125H2.649a1.883,1.883,0,0,1-.665-.125ZM29.006,17.911,43.057,5.856a2.481,2.481,0,0,1,.125.79V30.591a3.186,3.186,0,0,1-.125.831Z" transform="translate(-6482.339 14049.932)" fill="#707070"/>
        <text id="xiuyaoxyz_gmail.com" data-name="xiuyaoxyz@gmail.com" transform="translate(-6419 14079)" fill="#707070" font-size="27" font-family="CenturyGothic, Century Gothic"><tspan x="0" y="0">xiuyaoxyz@gmail.com</tspan></text>
      </g>
      <g id="Group_66" data-name="Group 66" transform="translate(32 -44)">
        <path id="Icon_awesome-phone-alt" data-name="Icon awesome-phone-alt" d="M32.018,23.289l-7.21-3.09a1.545,1.545,0,0,0-1.8.444l-3.193,3.9A23.86,23.86,0,0,1,8.407,13.139l3.9-3.193a1.541,1.541,0,0,0,.444-1.8L9.662.934A1.555,1.555,0,0,0,7.892.039L1.2,1.584A1.545,1.545,0,0,0,0,3.09,29.865,29.865,0,0,0,29.868,32.958a1.545,1.545,0,0,0,1.506-1.2l1.545-6.695a1.564,1.564,0,0,0-.9-1.777Z" transform="translate(-6007 14052)" fill="#707070"/>
        <text id="_81_80_4948_9793" data-name="(+81) 80 4948 9793" transform="translate(-5954 14079)" fill="#707070" font-size="27" font-family="CenturyGothic, Century Gothic"><tspan x="0" y="0">(+81) 80 4948 9793</tspan></text>
      </g>
    </g>
  </g>
</svg>
