<svg xmlns="http://www.w3.org/2000/svg" xmlns:xlink="http://www.w3.org/1999/xlink" width="83" height="1017" viewBox="0 0 83 1017">
  <defs>
    <filter id="Ellipse_10" x="0" y="0" width="83" height="83" filterUnits="userSpaceOnUse">
      <feOffset dy="3" input="SourceAlpha"/>
      <feGaussianBlur stdDeviation="3" result="blur"/>
      <feFlood flood-opacity="0.161"/>
      <feComposite operator="in" in2="blur"/>
      <feComposite in="SourceGraphic"/>
    </filter>
  </defs>
  <g id="Group_56" data-name="Group 56" transform="translate(5583 -9796)">
    <path id="Path_11" data-name="Path 11" d="M66,66" transform="translate(-5577.5 9817.5)" fill="none" stroke="#707070" stroke-width="1"/>
    <g id="Nav_line" transform="translate(-5596 9789)" opacity="0.3">
      <path id="Path_3" data-name="Path 3" d="M0,27.425V921" transform="translate(54.5 94.5)" fill="none" stroke="#707070" stroke-width="1"/>
      <g id="Ellipse_7" data-name="Ellipse 7" transform="translate(46 113)" fill="#f5f5f5" stroke="#707070" stroke-width="1">
        <circle cx="8.5" cy="8.5" r="8.5" stroke="none"/>
        <circle cx="8.5" cy="8.5" r="8" fill="none"/>
      </g>
      <g id="Ellipse_8" data-name="Ellipse 8" transform="translate(46 1007)" fill="#f5f5f5" stroke="#707070" stroke-width="1">
        <circle cx="8.5" cy="8.5" r="8.5" stroke="none"/>
        <circle cx="8.5" cy="8.5" r="8" fill="none"/>
      </g>
    </g>
    <g id="Nav_About" transform="translate(-5595 9814)">
      <rect id="Rectangle_16" data-name="Rectangle 16" width="50" height="115" transform="translate(29 170)" fill="#f5f5f5"/>
      <text id="ABOUT" transform="translate(62 271) rotate(-90)" fill="#707070" font-size="25" font-family="Bahnschrift" letter-spacing="0.1em" opacity="0.5"><tspan x="0" y="0">ABOUT</tspan></text>
    </g>
    <g id="Nav_Works" transform="translate(-5595 10101)">
      <rect id="Rectangle_16-2" data-name="Rectangle 16" width="50" height="115" transform="translate(29 170)" fill="#f5f5f5"/>
      <text id="WORKS" transform="translate(62 275) rotate(-90)" fill="#707070" font-size="25" font-family="Bahnschrift" letter-spacing="0.1em" opacity="0.5"><tspan x="0" y="0">WORKS</tspan></text>
    </g>
    <g id="Nav_Contact" transform="translate(-5870 10382)">
      <rect id="Rectangle_16-3" data-name="Rectangle 16" width="50" height="146" transform="translate(304 176)" fill="#f5f5f5"/>
      <text id="CONTACT" transform="translate(337 308) rotate(-90)" fill="#707070" font-size="25" font-family="Bahnschrift" letter-spacing="0.1em" opacity="0.5"><tspan x="0" y="0">CONTACT</tspan></text>
    </g>
    <g id="XY_logo" transform="translate(-4621 11732.716)">
      <g id="Group_42" data-name="Group 42" transform="translate(-953 -1930.216)">
        <g transform="matrix(1, 0, 0, 1, -9, -6.5)" filter="url(#Ellipse_10)">
          <circle id="Ellipse_10-2" data-name="Ellipse 10" cx="32.5" cy="32.5" r="32.5" transform="translate(9 6)" fill="#fff"/>
        </g>
      </g>
      <g id="Group_41" data-name="Group 41" transform="translate(-937.148 -1913.271)">
        <text id="X" transform="translate(0.148 23.555)" fill="#ffc000" font-size="24" font-family="CenturyGothic-Bold, Century Gothic" font-weight="700"><tspan x="0" y="0">X</tspan></text>
        <text id="Y" transform="translate(17.148 23.555)" font-size="24" font-family="CenturyGothic-Bold, Century Gothic" font-weight="700"><tspan x="0" y="0">Y</tspan></text>
      </g>
    </g>
  </g>
</svg>
